<?xml version="1.0" encoding="UTF-8"?>
<svg version="1.1" xmlns="http://www.w3.org/2000/svg" width="2000" height="2000">
<path d="M0 0 C660 0 1320 0 2000 0 C2000 660 2000 1320 2000 2000 C1340 2000 680 2000 0 2000 C0 1340 0 680 0 0 Z " fill="#FEFEFE" transform="translate(0,0)"/>
<path d="M0 0 C1.5910181 1.42392487 3.1661524 2.86608862 4.71484375 4.3359375 C6.65023774 6.1614353 8.60886745 7.88320658 10.6328125 9.60546875 C16.3287939 14.56751417 21.61652823 19.94778599 26.94604492 25.29614258 C28.7500271 27.10548433 30.5592929 28.90941819 32.36914062 30.71289062 C41.99912195 40.33922492 41.99912195 40.33922492 46.03125 45.08203125 C48.72306032 48.24072945 51.64240852 50.870016 54.79931641 53.55517578 C59.74390333 57.93051449 64.38103866 62.63642453 69.0559082 67.29614258 C70.87853086 69.10900162 72.7115661 70.9108952 74.54492188 72.71289062 C75.72331404 73.88475558 76.90107037 75.05726034 78.078125 76.23046875 C78.61781418 76.75781113 79.15750336 77.2851535 79.71354675 77.82847595 C85.86761209 84.01844789 90.28489412 90.37501263 90.50390625 99.296875 C90.43264251 106.67267225 88.28065329 112.08594089 83.94140625 117.984375 C78.40748924 123.39252117 71.80806375 125.80733424 64.12890625 126.109375 C63.06542969 126.16996094 62.00195312 126.23054687 60.90625 126.29296875 C51.9755391 124.7998215 45.21877682 118.27604665 39.11816406 111.97338867 C38.37841339 111.22619064 37.63866272 110.47899261 36.87649536 109.70915222 C35.28541564 108.09963136 33.69894898 106.48553935 32.11673737 104.86730003 C29.60173611 102.2960922 27.07358633 99.73847766 24.54168701 97.18391418 C18.25547167 90.83655618 11.98928372 84.46957293 5.72766113 78.09796143 C0.43020261 72.70783983 -4.87734996 67.32808206 -10.19950104 61.96233559 C-12.67210259 59.46137923 -15.12942922 56.94607246 -17.58660889 54.42997742 C-35.5572184 36.20049636 -52.54368754 26.54658205 -78.62109375 26.296875 C-120.00106288 26.28180143 -148.7174297 52.45100434 -176.32641602 80.01269531 C-177.95545888 81.63545878 -179.58468573 83.25803757 -181.21408081 84.88044739 C-186.52125048 90.16676341 -191.82325613 95.45824331 -197.125 100.75 C-198.96103245 102.58197897 -200.79709666 104.4139261 -202.63319206 106.24584198 C-210.27292832 113.86874285 -217.91156486 121.49274144 -225.546525 129.12042618 C-227.51757919 131.08957121 -229.48863904 133.05871059 -231.4597168 135.02783203 C-231.94947803 135.51710952 -232.43923926 136.00638702 -232.94384175 136.5104911 C-240.87939196 144.43773902 -248.823431 152.35642279 -256.77104224 160.27157679 C-264.96596554 168.4333095 -273.1530574 176.60283154 -281.33316082 184.77941775 C-285.91210151 189.35601824 -290.49422604 193.92931505 -295.08462715 198.49442291 C-299.40358019 202.78995606 -303.71274359 207.09508121 -308.01488876 211.40744591 C-309.58547014 212.97851923 -311.15941181 214.54624249 -312.73713875 216.11013985 C-324.57455654 227.84966296 -335.50526653 239.99921497 -343.12109375 254.984375 C-343.52714844 255.76997803 -343.93320312 256.55558105 -344.3515625 257.36499023 C-348.43250409 265.50819077 -351.33273679 273.92307579 -353.80859375 282.671875 C-354.07414063 283.54457031 -354.3396875 284.41726563 -354.61328125 285.31640625 C-359.4731015 304.32296351 -355.37098359 327.18100014 -345.60488892 343.89115906 C-338.36873667 355.09292829 -327.27221664 364.40628211 -317.91015625 373.80859375 C-317.10469738 374.61812815 -316.29923851 375.42766254 -315.4693718 376.26172829 C-311.21266972 380.53916448 -306.95278878 384.81340629 -302.69042969 389.08520508 C-298.31227622 393.47445124 -293.94593734 397.87526025 -289.58208656 402.2787199 C-286.19996609 405.6870668 -282.80891166 409.08641988 -279.41544724 412.48346901 C-277.80228169 414.10147761 -276.19246973 415.72283753 -274.58623123 417.34772301 C-262.79463126 429.40534711 -262.79463126 429.40534711 -248.80859375 438.671875 C-247.88092194 439.15536911 -246.95325012 439.63886322 -245.99746704 440.13700867 C-226.73784623 449.78882666 -203.04610991 448.8897195 -182.8671875 442.453125 C-156.55004818 433.48005584 -137.13591798 416.20797553 -117.87719727 396.82226562 C-116.74093288 395.68243308 -115.60442534 394.5428429 -114.46769714 393.4034729 C-112.04702877 390.97632315 -109.62788512 388.54766812 -107.20993233 386.11781311 C-103.38409252 382.27349055 -99.55374197 378.43368307 -95.72264099 374.59460449 C-84.83870631 363.68665387 -73.96086014 352.77264305 -63.0871582 341.85449219 C-57.06139523 335.80417679 -51.03203898 329.75746529 -44.998815 323.7145896 C-41.19094218 319.90018748 -37.38761214 316.08133116 -33.58762085 312.25907803 C-31.22732278 309.88704619 -28.86285042 307.51921011 -26.49717903 305.1525383 C-25.40257385 304.05578751 -24.3096886 302.95731702 -23.21866989 301.85699844 C-21.72801949 300.35413506 -20.23129203 298.85759147 -18.73292542 297.36242676 C-17.89769631 296.52405525 -17.06246721 295.68568375 -16.20192814 294.82190704 C-9.61702722 288.90641607 -3.39684802 288.30629633 5.18359375 288.390625 C12.02230694 289.03008909 16.82679942 292.48153174 21.19140625 297.671875 C24.83016975 302.92901207 27.32250734 307.21476964 27.56640625 313.734375 C27.61539062 314.61222656 27.664375 315.49007813 27.71484375 316.39453125 C25.94974328 327.44616777 17.87362558 334.69648786 10.27954102 342.19897461 C9.05910419 343.42291833 7.83974755 344.64793993 6.62138367 345.87394714 C3.32645582 349.18305809 0.01617708 352.47639843 -3.29758716 355.7666328 C-6.7798445 359.22867503 -10.24899067 362.70381279 -13.71998596 366.17713928 C-19.55465753 372.01175735 -25.39907173 377.83647046 -31.24975586 383.6550293 C-37.98428133 390.35275223 -44.70474088 397.06432795 -51.41739506 403.783966 C-57.90447064 410.27738219 -64.40011095 416.76216163 -70.9000721 423.24267769 C-73.65139454 425.98589045 -76.40003646 428.73174657 -79.14651299 431.47981071 C-82.39405831 434.72824528 -85.64920036 437.96888564 -88.90997124 441.20404243 C-90.09509858 442.38210139 -91.27781386 443.56259357 -92.45770645 444.74589539 C-126.08102661 478.44770663 -168.97721745 498.96367418 -217.03442383 499.05249023 C-233.77645327 498.79825479 -251.71543072 494.99391399 -266.80859375 487.671875 C-267.38818848 487.39359863 -267.9677832 487.11532227 -268.56494141 486.82861328 C-286.89026846 477.9189289 -300.31581064 464.62873993 -314.57421875 450.33984375 C-315.9834752 448.93399971 -317.39273702 447.52816091 -318.80254531 446.12287027 C-323.22119833 441.71816354 -327.63213954 437.30584203 -332.03808594 432.88842773 C-336.54973669 428.36529221 -341.07403551 423.85510151 -345.60479569 419.35111445 C-349.52842979 415.44978096 -353.44409856 411.54057431 -357.35367751 407.62515622 C-359.67395782 405.30154082 -361.99774755 402.98166415 -364.32752228 400.66756248 C-373.79759514 391.25227449 -382.90828406 382.18014576 -389.80859375 370.671875 C-390.23691498 369.96443649 -390.66523621 369.25699799 -391.10653687 368.52812195 C-402.71371689 348.33350941 -406.89724383 327.12281644 -407.05859375 304.109375 C-407.06818115 302.90216797 -407.07776855 301.69496094 -407.08764648 300.45117188 C-406.92877477 257.90821569 -386.86032536 217.65859585 -357.12231445 187.90673828 C-356.08799989 186.88324325 -355.05141009 185.8620419 -354.01245117 184.84326172 C-351.28313703 182.16616831 -348.66578957 179.45442362 -346.18359375 176.546875 C-340.94893931 170.42067358 -335.23244625 164.73716317 -329.12304688 159.48632812 C-324.93507886 155.83084261 -320.9782765 151.98642981 -317.0546875 148.05078125 C-316.35013931 147.34718979 -315.64559113 146.64359833 -314.91969299 145.91868591 C-313.44206008 144.44172852 -311.96566918 142.96352758 -310.49047852 141.48413086 C-308.25192894 139.24022415 -306.00808902 137.00170796 -303.76367188 134.76367188 C-302.31868971 133.31802882 -300.87401783 131.87207555 -299.4296875 130.42578125 C-298.76907822 129.7671962 -298.10846893 129.10861115 -297.42784119 128.43006897 C-293.58467624 124.56780642 -289.92904349 120.59982546 -286.39234924 116.45445251 C-283.42115436 113.11025878 -280.04712345 110.21159473 -276.703125 107.25 C-273.76943607 104.60754895 -271.0927197 101.89704866 -268.53808594 98.88330078 C-265.19274119 95.03324019 -261.62279521 91.59388802 -257.85546875 88.1640625 C-249.28707563 80.22396619 -241.05325754 71.96822875 -232.82421875 63.6796875 C-231.45818547 62.30550708 -230.09209613 60.93138238 -228.72595215 59.55731201 C-223.06894326 53.86511835 -217.41533178 48.1695963 -211.77197266 42.46386719 C-208.27709576 38.93100202 -204.77465263 35.40578405 -201.26750946 31.8850975 C-199.95241841 30.56206048 -198.64008376 29.23627663 -197.33081818 27.90747452 C-147.92673198 -22.22226082 -59.93656512 -49.68316108 0 0 Z " fill="#0C111C" transform="translate(1022.80859375,883.328125)"/>
<path d="M0 0 C1.22734863 0.34659668 1.22734863 0.34659668 2.47949219 0.70019531 C30.65802896 8.89702544 49.1698508 24.69180216 69.609375 45.17578125 C71.47076966 47.03260349 73.33253204 48.88905717 75.19464111 50.74516296 C79.07624484 54.6168076 82.95124828 58.49496872 86.82275391 62.37670898 C91.26453822 66.82997749 95.71896874 71.27029835 100.17986083 75.70441943 C104.51592255 80.0154554 108.84054126 84.33779768 113.1608963 88.66457176 C114.98046201 90.48428957 116.80308216 92.30095906 118.62895966 94.11434364 C131.33159252 106.74223147 142.87808506 118.99749807 150.375 135.5 C150.79144775 136.40234375 151.20789551 137.3046875 151.63696289 138.234375 C166.63191448 171.45761096 164.76972794 210.25147192 152.265625 243.98095703 C140.06201399 275.91822579 119.39727518 299.74827826 95.50317383 323.65795898 C93.83966418 325.32610475 92.17634959 326.99444505 90.51321411 328.66296387 C86.0175382 333.17168628 81.51859616 337.67713514 77.01862168 342.18156695 C74.20134147 345.00178947 71.38462875 347.82257799 68.56812096 350.64357185 C60.74695485 358.47691451 52.9248533 366.30932039 45.09929371 374.13827419 C44.60017014 374.63761733 44.10104658 375.13696046 43.58679805 375.6514352 C43.08659128 376.15186025 42.5863845 376.65228531 42.07101995 377.16787475 C41.05768036 378.18165778 40.04434233 379.19544237 39.03100586 380.20922852 C38.52837259 380.71208321 38.02573933 381.21493791 37.50787475 381.73303062 C29.36782943 389.87702214 21.23456136 398.02774611 13.1041948 406.1813991 C4.72708399 414.5823064 -3.65572234 422.97749576 -12.04415876 431.36709458 C-16.74191828 436.0657659 -21.43713189 440.76693252 -26.12636375 445.47411919 C-30.53977882 449.90410611 -34.96041446 454.32676201 -39.38648605 458.74410248 C-41.00063535 460.35748637 -42.6122693 461.97339178 -44.22105217 463.59212685 C-68.53751185 488.05005086 -95.65413562 506.23823404 -129 516 C-130.21502197 516.36013184 -130.21502197 516.36013184 -131.45458984 516.72753906 C-155.18246557 523.3766953 -185.75894927 523.14988357 -209 515 C-209.66854004 514.78069824 -210.33708008 514.56139648 -211.02587891 514.33544922 C-226.70409312 509.12758259 -240.25721803 500.50831711 -252 489 C-253.3668308 487.82377312 -254.74125451 486.65628048 -256.125 485.5 C-259.85620192 482.25678224 -263.04599224 478.65239509 -266.3125 474.94921875 C-273.13356496 467.4638931 -280.27883143 459.99198219 -288.0625 453.5 C-292.2561171 449.94204696 -295.88127907 445.87394062 -299.57983398 441.81787109 C-303.77717495 437.26332126 -308.11716461 432.88486065 -312.546875 428.55859375 C-313.72152931 427.40601848 -314.89617113 426.25343048 -316.07080078 425.10083008 C-317.83478567 423.37118339 -319.60254175 421.6465605 -321.38470459 419.93563843 C-328.45639391 413.14456377 -334.60591804 407.21642425 -336.53125 397.25 C-336.41096104 388.58919511 -333.49445721 381.88699002 -327.64453125 375.50390625 C-321.98454146 370.32790608 -315.49606371 368.4155008 -307.94433594 368.63769531 C-296.33189868 370.06662209 -288.25782855 378.91064619 -280.55908203 386.87841797 C-278.72580417 388.77503175 -276.87106667 390.64849851 -275.01171875 392.51953125 C-273.83466275 393.71489194 -272.65883309 394.91146173 -271.484375 396.109375 C-270.65495392 396.95154572 -270.65495392 396.95154572 -269.80877686 397.81072998 C-266 401.76534561 -266 401.76534561 -266 404 C-265.39671875 404.26425781 -264.7934375 404.52851562 -264.171875 404.80078125 C-261.8957713 406.05755074 -260.83181567 407.15440162 -259.25 409.1875 C-257.10039502 411.80347812 -254.91152841 414.0189855 -252.3125 416.1875 C-248.17783633 419.68849874 -244.61529306 423.63509463 -241.00610352 427.65795898 C-238.05036304 430.9269451 -235.0133062 433.82017961 -231.59765625 436.58984375 C-229.77099746 438.20212693 -228.2580573 439.95042394 -226.6875 441.8125 C-215.9027565 454.3668023 -203.16280892 463.09463229 -187 467 C-186.32646484 467.17515137 -185.65292969 467.35030273 -184.95898438 467.53076172 C-159.70377533 473.74478484 -132.91031497 465.10881405 -111.23046875 452.0859375 C-103.66175095 447.19876059 -96.73764905 441.82071066 -90.13769531 435.70085144 C-89.58090214 435.18525891 -89.02410896 434.66966639 -88.45044327 434.13844985 C-81.08822496 427.27319516 -73.9829177 420.1472649 -66.859375 413.03637695 C-65.28268887 411.46597271 -63.70581992 409.895752 -62.12878418 408.32569885 C-56.99900716 403.21674699 -51.87436688 398.10265858 -46.75 392.98828125 C-44.97313484 391.21547071 -43.19623847 389.44269146 -41.41931152 387.66994286 C-34.02402418 380.29148701 -26.62983434 372.9119347 -19.23931885 365.52869892 C-17.33273279 363.62402189 -15.426141 361.71935059 -13.51953125 359.81469727 C-12.80895419 359.10484582 -12.80895419 359.10484582 -12.08402205 358.38065394 C-4.41178194 350.71671269 3.26894522 343.0613365 10.95325136 335.40949533 C18.88380846 327.51216558 26.80650615 319.6070045 34.72222519 311.69479913 C39.1503072 307.26905369 43.58154858 302.84659175 48.02111816 298.43236732 C52.1997678 294.27719525 56.36855553 290.1123655 60.53038025 285.94034386 C62.0469088 284.42332472 63.56677633 282.90963378 65.09046936 281.39981079 C77.42279634 269.1733673 89.73731411 256.09443892 97.5 240.375 C98.09941406 239.20179199 98.09941406 239.20179199 98.7109375 238.00488281 C102.24948067 230.89021391 104.82814831 223.63767845 107 216 C107.350625 214.87078125 107.70125 213.7415625 108.0625 212.578125 C113.16326112 193.11022007 111.24123777 171.20969378 101.51772499 153.59561539 C98.99119254 149.34221197 96.15152107 145.65157958 92.73193359 142.06933594 C92.21649176 141.52052639 91.70104992 140.97171684 91.16998863 140.4062767 C84.16536503 132.99126167 76.9772203 125.75194096 69.7890625 118.515625 C69.03422955 117.75546837 68.27939659 116.99531174 67.50168991 116.21212006 C63.51404828 112.1979956 59.5229033 108.18738884 55.52929688 104.17919922 C52.25628987 100.89282068 48.99072654 97.5993071 45.73144531 94.29931641 C41.75420214 90.27244735 37.76453481 86.25828312 33.76594162 82.25261688 C32.26040478 80.74042971 30.75907309 79.22404214 29.26234818 77.70313263 C11.10523607 59.26917982 -7.12777689 48.04454916 -33.6875 47.625 C-67.98022962 47.67964721 -96.73937983 67.58818682 -120.05562675 90.966187 C-121.61634224 92.53665011 -123.17450747 94.10961747 -124.73266602 95.68261719 C-125.87197951 96.82877891 -127.01155429 97.97468097 -128.15136719 99.12034607 C-130.58561025 101.56781222 -133.01839858 104.0167117 -135.45013618 106.46666718 C-139.30124385 110.34585037 -143.15796888 114.21941621 -147.01585388 118.09185791 C-148.34192325 119.42306949 -149.6679854 120.75428826 -150.99404049 122.08551407 C-151.65754289 122.75160203 -152.32104528 123.41768998 -153.00465381 124.10396242 C-161.97060497 133.10584245 -170.93167576 142.11254035 -179.88256836 151.12939453 C-185.94192099 157.23330937 -192.00842368 163.33002021 -198.08305115 169.41873479 C-201.28955605 172.63328716 -204.49227864 175.85141419 -207.68615913 179.0785141 C-210.68751144 182.11103751 -213.69815046 185.13402527 -216.71599579 188.15013313 C-217.81714008 189.25396034 -218.91488323 190.36119332 -220.00881004 191.47217369 C-233.44367181 205.10722845 -233.44367181 205.10722845 -242.6953125 206.59375 C-252.74603607 206.31901496 -258.70475608 204.97448415 -266.19921875 198.00390625 C-271.54443987 192.05575346 -272.44429707 185.89256333 -272.43359375 178.08984375 C-271.45214338 171.09590464 -268.83447518 166.08406682 -263.76690674 161.13871765 C-263.23998159 160.60469812 -262.71305645 160.07067858 -262.17016387 159.52047664 C-260.41578443 157.7486106 -258.64423685 155.99502868 -256.87207031 154.2409668 C-255.60429667 152.96805035 -254.3375954 151.69406509 -253.07188416 150.4190979 C-249.63847556 146.96719943 -246.18956331 143.53119273 -242.73708057 140.09838462 C-239.11279269 136.49053094 -235.50116799 132.87003776 -231.88763428 129.25141907 C-225.81000606 123.16927091 -219.72226869 117.09738575 -213.62841797 111.03149414 C-206.6129083 104.04792754 -199.61344238 97.04859625 -192.62254071 90.04040211 C-185.87170488 83.27361204 -179.10949909 76.51829287 -172.34218597 69.76798439 C-169.47608286 66.90870136 -166.6138959 64.04558432 -163.75492096 61.17917442 C-160.37251202 57.78901393 -156.98013282 54.4091346 -153.58032417 51.03642654 C-152.34474843 49.80764792 -151.11241646 48.575596 -149.88388634 47.33977318 C-128.40081781 25.74407017 -100.78278552 8.30909437 -71 1 C-70.2786084 0.80825195 -69.5572168 0.61650391 -68.81396484 0.41894531 C-47.69730012 -5.07183538 -21.14414023 -6.0483238 0 0 Z " fill="#0B101B" transform="translate(1220,619)"/>
</svg>
